<?xml version="1.0" encoding="UTF-8"?>
<svg version="1.1" viewBox="0 0 1600 1600" width="35" height="35" xmlns="http://www.w3.org/2000/svg">
<path transform="translate(96)" d="m0 0h1410l-3 39-9 107-6 60-10 119-6 60-10 119-6 59-10 120-6 60-9 108-8 84-9 106-6 61-10 118-6 59-7 85-6 69-3 5-13 5-100 28-278 77-70 20-34 10-46 14-20 8h-31l-20-7-34-12-77-22-105-29-197-54-28-8-26-7-57-16-12-4-4-4-2-14-10-105-7-76-10-115-9-99-9-103-10-111-14-156-7-80-9-100-7-80-11-123-6-68-10-112-6-74z" fill="#244DE9"/>
<path transform="translate(639,292)" d="m0 0h362l216 1 21 1 4 2v24l-5 61-7 73-7 78-8 87-11 124-8 88-10 111-7 75-10 111-5 59-4 5-8 4-52 15-50 14-70 19-61 17-28 8-25 7-40 12-18 6h-11l-21-6-43-13-50-14-53-15-113-31-49-13-21-6-6-3-3-7-7-77-10-101-6-74v-17l1-1 173 1 3 3 3 25 5 65 2 27 2 16 1 2 14 5 32 10 32 9 38 10 36 10 25 7 13 5 6-1 16-4 36-10 42-11 52-15 32-9 16-6 3-2 5-53 12-144 2-25 1-4-122 1h-336l-121 1h-30l-3-10-4-26-8-72-6-70h71l251-1 169 1h107l48-1 3-46 5-62 6-70-9-1h-501l-117 1-44 1-2-2-3-20-11-103-4-45v-9l3-1 30 1h26l136-1z" fill="#FAFAFA"/>
<path transform="translate(1047,115)" d="m0 0h155l141 2h12l16 1 2 7-2 57-1 14-1 4-1 26-4 49-3 45-2 34-2 22-5 58-7 76-3 38-2 18-3 28-1 15-3 27-4 44-1 18-2 21-3 30-3 32-5 54-3 32-2 25-2 20-4 44-5 56-2 25-7 77-5 56-1 13-2 24-3 39-3 32-2 25-2 18-1 18-2 8-11 4-18 5-27 8-26 7-24 7-25 7-19 6-11 3-29 9-15 4-23 6-17 5-27 7-22 6-38 10-23 6-21 6-42 11-18 5-21 6-9 3h-3l-2-113v-69l1-2 13-2 33-11 38-11 108-30 81-22 80-23 8-4 3-4 8-92 13-144 7-76 11-121 11-122 4-44 8-89 7-78 6-63 3-38v-24l-3-1-21-1-421-2v-64l3-107v-4l205-1z" fill="#2661F9"/>
<path transform="translate(896,827)" d="m0 0h122l-3 43-13 152-3 31-4 3-19 7-57 16-36 10-40 11-26 7-18 5-6-1-21-7-37-10-44-12-47-13-32-10-8-4-1-2-3-26v-17h1l2 25 3 17 6 2 7 1v2l7-1v2l3-1 4 1 13 3 14 4 11 3 9 2 14 4 15 4 9 3 16 4 11 3 9 2 24 9 3 2h5 2l2-2h4l2-5 1-4 1-66v-154l-1-38 1-4z" fill="#2661F9"/>
<path transform="translate(795,470)" d="m0 0h244l9 1 1 2-9 104-5 69-1 4-5 1-43 1h-107l-83-1v-97l-1-54z" fill="#2661F9"/>
<path transform="translate(475,898)" d="m0 0h5v1h13v1h9l1 2-5 1h-6l-1 2-4 2-2 3h-9l-8 1-13-2-4 2h-8l-4-1-1-4 4-2 14-1 9-1-2-2 2-1z" fill="#2660F9"/>
<path transform="translate(444,913)" d="m0 0 2 1 96 1h36l10 1v1h-161v-1l17-1z" fill="#2762FA"/>
</svg>
