<svg xmlns="http://www.w3.org/2000/svg" width="256" height="256" viewBox="0 0 100 100"><rect width="100" height="100" rx="20" fill="#3c3c3c"></rect><path fill="#fff" d="M21.86 71.46L21.86 71.46Q19.20 71.46 17.62 69.88Q16.05 68.31 16.05 65.65L16.05 65.65L16.05 28.76Q16.82 28.62 18.25 28.41Q19.69 28.20 21.09 28.20L21.09 28.20Q24.24 28.20 25.64 29.25Q27.04 30.30 27.04 33.38L27.04 33.38L27.04 62.57L43.84 62.57Q44.26 63.27 44.65 64.39Q45.03 65.51 45.03 66.84L45.03 66.84Q45.03 69.15 44.02 70.30Q43 71.46 41.25 71.46L41.25 71.46L21.86 71.46ZM80.03 37.72L71.49 37.72L71.49 71.25Q70.72 71.46 69.32 71.63Q67.92 71.81 66.38 71.81L66.38 71.81Q63.09 71.81 61.76 70.69Q60.43 69.57 60.43 66.63L60.43 66.63L60.43 37.72L49.44 37.72Q49.02 37.02 48.64 35.90Q48.25 34.78 48.25 33.45L48.25 33.45Q48.25 31.07 49.30 29.98Q50.35 28.90 52.17 28.90L52.17 28.90L82.76 28.90Q83.25 29.60 83.60 30.72Q83.95 31.84 83.95 33.17L83.95 33.17Q83.95 35.48 82.90 36.60Q81.85 37.72 80.03 37.72L80.03 37.72Z"></path></svg>