<?xml version="1.0" encoding="UTF-8"?>
<svg version="1.1" viewBox="0 0 1600 1600" width="35" height="35" xmlns="http://www.w3.org/2000/svg">
<path transform="translate(99)" d="m0 0h1404l-2 34-4 52-6 65-6 66-6 74-8 83-9 107-6 60-10 120-6 60-10 120-6 60-10 119-6 61-10 118-6 59-7 87-6 67-2 23-3 3-21 7-68 19-79 22-216 60-53 15-45 13-53 16-20 7-8 3h-24l-15-5-30-11-30-9-413-114-70-20-3-4-2-12-15-160-17-192-10-115-14-155-8-90-10-114-12-133-7-82-9-99-7-82-11-123-5-64z" fill="#E4582B"/>
<path transform="translate(358,297)" d="m0 0h880l1 1v14l-4 60-5 56-3 41-6 3h-487l-88 1h-89l-4-1 12 132 5 49 134-1h32l59 1h303l108-1 2 3-4 60-7 82-9 99-7 79-8 82-8 89-4 44-4 4-29 9-60 17-36 10-110 30-57 16-36 10-24 6h-13l-36-10-113-32-45-13-31-9-23-6-58-16-39-11-5-5-2-5-4-36-10-98-7-86-2-32v-15h174l2 2 6 68 4 51 3 16 14 6 56 17 42 12 76 21 12-1 63-17 34-9 41-12 24-7 27-7 1-1 7-63 9-96 4-51 1-19h-584l-21-1-3-5-4-24-8-76-6-63-8-88-6-63-9-108-7-67-3-31z" fill="#F9F9F9"/>
<path transform="translate(757,293)" d="m0 0h12l7 1v1l-18 1-376 2-24-1 3 25 6 60 4 42 8 97 8 82 9 99 2 37v9l-4 1-2-1v-15l-1-6 2-5v-9l-4-5-3-3 1-7-2-5-1-5-1-7-1-15-2-6-1-5v-10l-1-5v-16l-1-2v-9l-1-3-1-13-1-6v-10l-2-10-2-15-1-1v-10l-1-4 1-4-1-7 1-4h-2l-1-23 1-5h-2l-1-6 1-3-1-3-1-13-1-29v-10l-2-4 1-7 1-6-2 1-1-9-1-15-2-5-2-14 1-7h-2l1-7-1-9-2-5v-22l-1-3 1-8v-7l1-7h2v-3h2l1-3h115z" fill="#D04B2A"/>
<path transform="translate(788,812)" d="m0 0 4 1 3 3 1 5 4 1 16 2 163 2 39 1v18h-1v-17h-584l-21-1-2-2 1-3 1 2 19 1 111-1 36-1h23l16-1h8l7-1 34-1 14-1h26l26-1 11-1h18l12-2h7z" fill="#EADFDF"/>
<path transform="translate(408,818)" d="m0 0 4 8 32 1h355l218 1v19l-6 73-8 84-6 53-2 1v-21l2-7 1-18 1-12 1-9 1-2v-29l2-10 1-18-1-10 1-2-1-3 2-16 1-4 2-5 2-8 1-9 2-15-1-16 2-1 1-12h-69l-60 1h-28l-31 1-27-1-186-2h-188l-15-1-3-6z" fill="#EE886E"/>
<path transform="translate(785,459)" d="m0 0 6 1 3 3 2 3 11 2 42 1 135 1h240l-3 2h-487l-88 1h-89v-1l36-1 60-3 22-2 7-1 18-1 19-1h9l7 2 1-2h13l15-2 6-1h13z" fill="#EADFDF"/>
<path transform="translate(1226,469)" d="m0 0v3l-9 2-155 1h-102l-93 1h-71l-70-1-167-1v-1l175-2h487z" fill="#EE886E"/>
<path transform="translate(414,940)" d="m0 0 2 1 2 21v13h2l1 3 7 83 7 68 1 26v21l-2-1v-7l-2-11-2-3-1-7-1-4v-19l1-4v-13h-2l-2-6v-23l1-2h-2l-3-5-1-4v-7h-2v-8l-4-18v-16l-2-7 1-4-1-5-1-21v-15l1-2-2-1 2-5z" fill="#D14D2B"/>
<path transform="translate(705,651)" d="m0 0h123l37 1h69l79-1h175l13 1v1l-103 1h-309l-53-1-31-1z" fill="#EE886E"/>
<path transform="translate(1206,652)" d="m0 0h2l1 7-4 58-4 48-6 67-2 21-5 56-4 47-3 31-4 50-4 36-2 28-3 32-4 49-2 9-2 1 5-56 9-100 9-93 7-82 10-109 5-65 2-32z" fill="#EE886E"/>
<path transform="translate(704,652)" d="m0 0h32l59 1h406v1l-75 1-330 1-1 1h-11l-7-1-23-1-182-1v-1z" fill="#EADFDF"/>
<path transform="translate(757,293)" d="m0 0h12l7 1v1l-18 1-185 1-103-1 2-2z" fill="#CE4726"/>
<path transform="translate(465,294)" d="m0 0 5 1 103 1v1l-191 1-9-1v-2z" fill="#D7522E"/>
<path transform="translate(663,649)" d="m0 0h104v1l-62 2h-121v-1l64-1z" fill="#D14926"/>
<path transform="translate(430,1111)" d="m0 0h2l2 7 1 11 1 26v21l-2-1v-7l-2-11-2-3-1-7-1-4v-19z" fill="#D14B2A"/>
<path transform="translate(553,472)" d="m0 0 6 1 82 2v1l-84 1v24l-1 5h-1l-2-24z" fill="#D5512F"/>
<path transform="translate(394,714)" d="m0 0h2l2 25v9l-4 1-2-1v-15l-1-6 2-5z" fill="#CE4726"/>
<path transform="translate(749,1280)" d="m0 0 7 1 36 10h13l20-5 4 1-18 5-6 2-10 1-25-8-15-4-6-2z" fill="#EE886E"/>
<path transform="translate(663,649)" d="m0 0 6 1v2h-85v-1l64-1z" fill="#CE4726"/>
<path transform="translate(398,750)" d="m0 0h1l2 8 1 26-1-2-4-2-1-8 1-4v-16z" fill="#CF4826"/>
<path transform="translate(763,1283)" d="m0 0 11 1 15 3 9 2 7 2v1h-13l-29-8z" fill="#EADFDF"/>
<path transform="translate(736,297)" d="m0 0h61l-4 3h-5l-3-1-49-1z" fill="#EADFDF"/>
<path transform="translate(780,1107)" d="m0 0 8 1 9 1h12l-3 2-12 1-14-4z" fill="#EE886E"/>
<path transform="translate(663,649)" d="m0 0 6 1v2h-21l1-2z" fill="#D04826"/>
<path transform="translate(788,646)" d="m0 0 6 2-2 3-15-1v-1h11z" fill="#CE4726"/>
<path transform="translate(562,573)" d="m0 0h1v7h2v10l-2 2-1-10z" fill="#E16A4B"/>
<path transform="translate(556,509)" d="m0 0h1v5h2v8l-1 5h-1z" fill="#E26B4C"/>
</svg>
