<?xml version="1.0" encoding="UTF-8"?>
<svg version="1.1" viewBox="0 0 1600 1600" width="35" height="35" xmlns="http://www.w3.org/2000/svg">
<path transform="translate(78)" d="m0 0h1412v14l-6 68-6 73-6 60-6 73-5 53-6 65-9 107-6 60-10 119-6 59-10 120-6 60-6 73-8 86-6 67-6 71-5 48-10 120-3 34-3 5-21 7-88 25-68 19-221 62-90 26-46 14-21 7-14 5h-18l-16-5-40-14-44-13-396-111-56-16-12-4-2-1-3-22-15-160-8-92-14-155-6-69-11-123-14-156-7-80-11-123-6-68-10-113-6-68-11-121-8-79z" fill="#E6C243"/>
<path transform="translate(838,310)" d="m0 0h447l3 2v14l-4 66-3 36-3 44-4 3-12 1-162 1h-65l-58-1 1 68 1 100 1 60v22l28-3 73-9 58-8 56-7 50-7h12l1 5-3 49-8 117-5 60-4 44-4 52-2 36-7 77-1 13-2 5-13 4-64 17-144 38-42 11-53 13-52 12-10 2-2-7v-141l1-13 3-4 26-6 44-10 56-15 36-10 26-7 32-9 39-10 7-2h4v-14l6-126-61 10-41 7-58 11-68 12-43 7h-9l-1-166-1-91-1-198-1-73-1-35-2-22v-14l2-10z" fill="#FBFBFB"/>
<path transform="translate(613,308)" d="m0 0h56l34 1 17 1 4 2 1 3 1 61 1 123 2 130 1 624-7-1-24-8-26-8-26-7-51-14-56-16-61-17-35-10-26-7-31-9-25-7-44-13-1-1v-79l2-83h8l44 12 125 34 70 20 24 7-1-291v-164l1-239 1-38 3-4 4-1z" fill="#FBFBFB"/>
</svg>
