<?xml version="1.0" encoding="UTF-8"?>
<svg version="1.1" viewBox="0 0 2000 2000" width="35" height="35" xmlns="http://www.w3.org/2000/svg">
<path transform="translate(0,24)" d="m0 0h2e3v1954l-2e3 -1z" fill="#280035"/>
<path transform="translate(0,24)" d="m0 0h2e3v1954l-2e3 -1zm85 84-1 1656v130h1836v-1785l-1-1z" fill="#E777FD"/>
<path transform="translate(649,467)" d="m0 0h124l35 3 37 6 26 6 33 11 25 11 22 12 14 9 12 9 13 11 6 5v2l4 2 11 12 9 11 13 19 8 13 8 16 7 16 9 27 6 27 4 30 1 11v43l-3 30-4 23-8 31-9 24-7 16-10 18-10 15-12 16-12 13-9 10-11 9-14 11-13 9-15 9-23 12-25 10-24 8-33 8-30 5-36 4-16 1h-39l-30-1-14-1v311l-1 16-3 3-6 1h-134l-5-3-1-5-1-48v-591l1-260 2-9 6-3 13-1 66-2z" fill="#E777FD"/>
<path transform="translate(1488,699)" d="m0 0h24l7 1 2 4v129l-4 4-6 1-69 1-47 5-24 5-15 5h-2v525l-1 9-3 2-139 1-6-2-3-4-1-8-1-391v-176l-2-36v-13l8-5 20-8 43-14 34-9 50-11 35-6 40-5 34-3z" fill="#E777FD"/>
<path transform="translate(704,601)" d="m0 0h72l24 3 21 5 24 9 17 9 16 12 13 13 10 14 8 14 6 14 6 22 3 19 1 12v32l-4 27-6 23-8 18-7 12-10 13-5 6-8 7-11 9-19 11-14 6-22 7-25 5-27 3h-83l-7-1-1-1 1-321 9-1z" fill="#280035"/>
<path transform="translate(1904,109)" d="m0 0h14l1 208v1576l-1 1h-1792l-41-1 1-1727 1-14-1-9v-33h98l1 2-36 1h-20l-18 1-8 1-3-1-5 5-1 3-1 7-1 25 1 19 1 26v35l1 79v41l-1 7 1 17v105l-1 6 1 17v105l-1 6 1 17v105l-1 6 1 17v105l-1 6 1 17v105l-1 6 1 17v105l-1 6 1 17v105l-1 6 1 17v105l-1 6 1 17v105l-1 6 1 17v233l-1 34v80l2 6 7 1 9 1h10l19 1h71l150-1h1368l70 1h71l3 1 5-1 23-1 6-2 3-10-1-43 1-23v-1561l1-6 1-45v-29l-1-5v-12l-3-19v-10h-2l-3-5h-5l-2-2h-107l-31-1v-2h143z" fill="#1E0226"/>
<path transform="translate(148,104)" d="m0 0h1705l67 2 1 1 1 10-1 1768h-1l-1-1776-1834-1v1656l-1 130h-1l-1-190v-1280l-1-223v-22l1-71 2-2 22-1z" fill="#D569F3"/>
<path transform="translate(519,473)" d="m0 0 1 2-1 5-1 175v730h-3v-2h-2l-1-5-1-17v-737l1-29v-100l1-10 3-6 2-5z" fill="#1E0326"/>
<path transform="translate(670,1060)" d="m0 0 18 1 37 1h24l25-2h9l-4 2-25 5h-7l-8 1-2-1-4 1-5-1h-1-5v-2l-10 1-6-1h-12l-9-1-6 2-2 15v30l1 23v131l1 8v92l-2 18-3 6h-2v2h-2v2l-10 4h-26l-14 1h-82l-13-2v-4l4-1h108l27-1 5-2 1-226 1-70-1-4z" fill="#1E0226"/>
<path transform="translate(1198,896)" d="m0 0 1 4 1 132v351h-5v-31l1-11v-33l-1-2 1-16-1-12v-33l-1-31v-128l1-60v-72l2-57z" fill="#1E0326"/>
<path transform="translate(649,467)" d="m0 0h124l35 3 37 6 4 2-13-1-10-2-17-1h-2v-2l-42-2h-140l-83 2-5 1h-9l-5 3-1 2-1 22v60l-1 195v627h-1l-1-48v-591l1-260 2-9 6-3 13-1 66-2z" fill="#D569F3"/>
<path transform="translate(668,460)" d="m0 0h48l45 1 10 2 15 1h17l4 3-1 2-12-1h-207l-54 2-12 1 2-5 4-2 14-1h60l32-1 8-1z" fill="#1E0227"/>
<path transform="translate(1359,1097)" d="m0 0 2 2v8l1 5-1 49-1 7 1 18 1 53-1 59 1 46 1 11-1 16v9l-2 9-4 2v2l-3 2-7 1-4-2 4-2 8-3 1-70 1-131 1-5 1-8-2-1 1-5v-14l-1-5v-22l1-5v-12l1-12z" fill="#1E0326"/>
<path transform="translate(674,625)" d="m0 0h1l1 7v9l1 5-1 8v52l1 29v16l1 10-1 33 1 3-1 45v33l-1 14-2 4-4-1v-117l1-25 2-35v-79z" fill="#1E0226"/>
<path transform="translate(842,1047)" d="m0 0h5l-4 2-25 5-39 5-27 2h-39l-30-1-14-1v311l-1 16-3 3-6 1h-134l-5-3v-5l2 3v2h142l2-3 1-303 1-23 3-1h27l28 1h34l34-3 28-4z" fill="#D569F3"/>
<path transform="translate(668,603)" d="m0 0h1v321l7 1h83l27-3 12-1v2l-2 1-38 4-8 1h-38l-8-1h-34v-2l-3-1-1-154v-141l1-16z" fill="#D569F3"/>
<path transform="translate(1198,761)" d="m0 0h1l4 56v442l1 128-2-2-1-8-1-391v-176l-2-36z" fill="#D569F3"/>
<path transform="translate(1206,1392)" d="m0 0h128l7 1v2l-6 1-11 1-8 1h-26l-2 1h-29l-4 1-15-1h-15l-12-3h-6v-2l-2-1z" fill="#1E0326"/>
<path transform="translate(1476,693)" d="m0 0h23l13 1 9 4-1 2h-32l-26 1-43 4-38 5-6 1h-8l3-2 10-3 12-1 8-4h9l4 1 11-2 2-2 13-3 18-1h12z" fill="#1F0227"/>
<path transform="translate(1337,712)" d="m0 0 5 1h12l-1 2-41 9-32 8-11 3h-6l4-5 7-3 10-3 9-1 5-3 24-4h4 5l2-3z" fill="#1F0228"/>
<path transform="translate(1520,704)" d="m0 0h1v129l-4 4-6 1-69 1-39 4h-8v-1l44-5 18-1 59-1 2-2 1-6v-39z" fill="#D569F3"/>
<path transform="translate(864,891)" d="m0 0h2v3l-19 11-14 6-22 7-19 4h-10l3-2 15-3h6l1-3 8-1 6-2v-2l13-6 9-3 10-5 6 1v-3z" fill="#1F0228"/>
<path transform="translate(1404,843)" d="m0 0h9v1l-9 2-1 2-14 2-10 4-5 1-10 3-3 2-5-1-1-4 3-3 21-6z" fill="#1F0227"/>
<path transform="translate(1061,658)" d="m0 0 2 3 6 24 4 24 3 27v43l-3 30-2 13h-1l1-15 1-17 1-14v-36l-3-36-6-31-3-11z" fill="#D569F3"/>
<path transform="translate(687,603)" d="m0 0h30v1l-16 2-7 2-12 2-4 6-1 3h-2l-1 3-2-2h-1l-1-6v-10z" fill="#1E0326"/>
<path transform="translate(853,624)" d="m0 0 5 1 11 7 10 8 5 5-1 3-1-1-1 2h-2v-2l-5-2-4-3-5-2v-2l-4-1-11-11z" fill="#1F0227"/>
<path transform="translate(920,711)" d="m0 0 2 3 4 23 1 9v31l-3 19-4 20-2 3 1-8 4-23 1-9v-32l-2-19-2-12z" fill="#D569F3"/>
<path transform="translate(902,849)" d="m0 0 1 3-3 7-10 13-5 6-8 7-2 2h-3l2-4 5-4 4-5 3-6 6-3 5-13z" fill="#21022A"/>
<path transform="translate(715,920)" d="m0 0 8 1h7l1 1 15 1-2 2h-44l-12-1v-1l11-2z" fill="#1E0326"/>
<path transform="translate(1457,839)" d="m0 0h51v1h-6l-1 4h-5l-2 1-9-2h-6l-3-1-5 1-6-2-6 1-2-1z" fill="#1E0326"/>
<path transform="translate(1399,701)" d="m0 0h10l6 2 4 2-38 5-6 1h-8l3-2 10-3 12-1 6-3z" fill="#200229"/>
<path transform="translate(1242,735)" d="m0 0h8l1 3h2v2l-21 7h-5l4-7 6-3h5z" fill="#1F0227"/>
<path transform="translate(194,110)" d="m0 0h82l1 2-23 1-59-1z" fill="#1E0326"/>
<path transform="translate(818,469)" d="m0 0h17l19 4v3l2 1h-11l-11-2v-2l-9-1-8-1z" fill="#1E0227"/>
<path transform="translate(977,532)" d="m0 0 4 2v2l5 2 6 3 9 7 2 6h2l2 6-8-6-3-2v-2l-4-2-12-11-3-2z" fill="#200229"/>
<path transform="translate(1521,700)" d="m0 0 4 2 2 8v16h-4l-1-2z" fill="#1E0326"/>
<path transform="translate(821,911)" d="m0 0m-1 1 1 3-23 6-6 1h-10l3-2 15-3h6l1-3 8-1z" fill="#21012B"/>
<path transform="translate(909,685)" d="m0 0 4 4 3 8 1 9-3 1v-2l-3-1-1-8-3-9z" fill="#1F0228"/>
<path transform="translate(672,914)" d="m0 0 7 4 5 6h-14v-8z" fill="#1E0326"/>
<path transform="translate(1525,767)" d="m0 0h2l1 5v11l-1 7-3 4-1-23z" fill="#1E0326"/>
<path transform="translate(898,669)" d="m0 0h2l4 4 4 8-1 4-2-1v-2h-2v-2h-2l-3-6z" fill="#1E0326"/>
<path transform="translate(883,649)" d="m0 0 5 2v2l4 1v7h2l1 4-3-1-9-11z" fill="#1E0226"/>
<path transform="translate(902,849)" d="m0 0 1 3-3 7-5 4-2 2 2-9 3-5z" fill="#1F0227"/>
<path transform="translate(927,502)" d="m0 0 4 1 8 3 7 5-4 1-15-8z" fill="#21022A"/>
<path transform="translate(1379,706)" d="m0 0 9 2v1l-13 2h-8l3-2z" fill="#21022B"/>
<path transform="translate(840,620)" d="m0 0h7l1 2-1 2 2 1-2 1-6-1v-2h-2z" fill="#1E0326"/>
<path transform="translate(1436,840)" d="m0 0h15l-3 2-9 1-3-1z" fill="#1E0326"/>
<path transform="translate(844,1049)" d="m0 0 3 1-2 3-5 1-4-2 3-2z" fill="#1E0326"/>
<path transform="translate(796,917)" d="m0 0m-1 1m-8 1h8l-3 3h-10l3-2z" fill="#1F0228"/>
<path transform="translate(1065,663)" d="m0 0h4l2 6-3 2v-3h-2z" fill="#1E0326"/>
</svg>
