<?xml version="1.0" encoding="UTF-8"?>
<svg version="1.1" viewBox="0 0 2000 2000" width="35" height="35" xmlns="http://www.w3.org/2000/svg">
<path transform="translate(0,24)" d="m0 0h2e3v1951l-2e3 1z" fill="#031E26"/>
<path transform="translate(0,24)" d="m0 0h2e3v1951l-2e3 1zm85 84-1 1v1782l1831 1 1-1783-1-1z" fill="#00C9FE"/>
<path transform="translate(627,466)" d="m0 0h104l36 2 26 3 36 7 25 7 25 9 24 11 15 8 12 8 13 10 11 9 11 10 7 8 9 10 13 18 12 21 11 23 7 21 7 26 6 37 2 24v42l-3 27-4 24-7 28-10 28-11 23-14 23-10 13-11 13-21 21-11 9-15 11-19 12-23 12-28 11-21 7-28 7-26 5-23 3-19 2-20 1h-24l-43-1-16-1v326l-3 3-2 1-81 1h-59l-4-2-2-6-1-66v-64l1-715 1-56 5-5 6-3 13-2 79-3z" fill="#00C9FE"/>
<path transform="translate(1343,697)" d="m0 0h14l28 1 30 3 34 5 25 6 20 7 8 5 5 10v119l-2 7-3 3-7-1-23-11-26-10-25-7-30-5-15-2-23-1-24 1-16 3-15 5-14 8-10 9-8 13-3 10v23l3 11 8 12 11 11 11 9 15 10 13 8 27 15 15 8 16 8 26 14 15 9 24 16 14 11 10 9 12 11 10 10 8 10 12 18 8 15 8 22 4 17 3 22v43l-3 23-7 25-7 18-11 21-10 14-9 11-4 5-8 7-11 10-16 11-18 10-22 10-27 9-28 6-21 3-15 1h-46l-30-2-27-4-26-5-30-9-25-10-13-7-3-4-1-16v-68l1-55 1-2 7 1 19 11 15 8 26 11 28 9 29 6 18 3 26 2h14l21-2 19-4 15-6 10-6 9-8 6-9 6-18v-20l-4-14-8-13-11-12-9-8-16-12-16-10-19-11-29-15-38-20-19-12-14-10-13-10-11-9-12-12-11-12-11-15-10-17-9-23-7-26-2-12v-57l6-26 7-19 6-14 8-14 12-17 15-16 13-12 12-9 19-12 21-10 25-9 25-6 25-4z" fill="#00C9FE"/>
<path transform="translate(682,600)" d="m0 0h52l24 3 26 6 19 7 16 8 11 7 10 8 10 9 11 14 9 15 7 15 5 18 5 26v48l-4 23-6 21-7 16-8 15-8 10-11 12-11 9-10 7-19 10-27 9-17 4-29 4-15 1h-59l-23-1-1-2v-319l1-1 12-1z" fill="#031E26"/>
</svg>
