<?xml version="1.0" encoding="UTF-8"?>
<svg version="1.1" viewBox="0 0 1600 1600" width="35" height="35" xmlns="http://www.w3.org/2000/svg">
<path transform="translate(461,67)" d="m0 0h42l28 4 24 7 36 15 25 12 22 11 24 14 19 12 29 20 17 13 13 11 10 8 13 12 10 10 8 7 9 10 10 7 7-6 13-14 8-7 16-15 14-12 10-8 12-9 13-10 20-14 24-15 17-10 22-12 29-14 37-15 22-7 22-4 8-1h41l27 4 24 8 18 10 13 9 14 12 10 10 8 10 10 16 12 23 8 20 6 19 6 27 4 30 2 24v60l-3 43-5 43-4 24-10 50-4 17-1 3 12 3 32 10 47 18 35 15 40 20 27 16 22 15 17 12 17 14 8 7 7 7 6 5 7 8 9 10 13 19 7 11 13 23 8 16 3 10v66l-15 32-10 17-13 18-9 12-14 15-14 14-11 9-12 10-19 13-17 11-21 13-34 18-33 15-34 14-53 19-19 7-2 1 1 5 5 16 10 52 5 36 5 51 1 13v61l-3 35-4 26-6 25-7 23-9 21-9 16-8 12-12 16-7 8-8 7-13 10-17 10-24 9-19 5-13 2-15 1h-12l-26-2-24-5-17-5-28-11-33-15-27-14-17-10-13-8-14-9-17-12-11-8-14-11-26-22-12-11-8-7-18-18-4-3-7 1-12 11-8 8-11 9-10 10-8 7-14 12-14 11-20 15-17 11-21 13-17 10-39 20-30 13-36 12-22 5-13 2-15 1h-18l-23-2-24-6-21-9-16-10-11-9-16-16-13-17-8-13-8-16-8-18-8-24-7-30-4-27-2-25-1-23v-19l2-37 3-35 7-49 9-45 6-21 2-5-1-4-22-8-20-7-26-10-16-6-20-8-33-15-24-12-23-13-18-11-10-7-14-10-16-13-14-12-24-24-11-14-10-14-11-19-13-25-3-6v-78l6-12 6-10 12-22 8-12 12-17h2l2-4 12-13 14-14 22-18 18-13 26-17 28-16 34-17 42-18 30-11 43-14 9-5-1-9-5-20-10-61-6-41-3-35-1-20v-33l3-44 4-28 5-24 9-27 9-22 11-20 8-12 8-10 12-13 10-9 15-10 16-8 16-7 21-5zm15 65-18 2-16 5-16 8-13 11-8 9-10 15-8 16-6 17-7 26-4 22-3 25-1 35 2 38 5 44 8 54 8 40 4 12 10-1 24-6 77-14 69-10 25-3 9-4 6-8 8-11 11-15 13-19 9-11 10-14 6-7 13-17 11-13 9-11 12-14 10-11 7-8 11-13 7-6 3-5-2-4-10-10-8-7-10-10-11-9-11-10-28-22-17-12-18-12-21-13-18-10-17-9-24-11-28-11-19-5-22-3zm627 1-18 3-20 5-25 10-26 12-23 12-14 8-25 16-11 8-17 12-14 11-13 11-10 8-13 12-14 14-8 7-6 6 2 5 14 14 9 11 9 10 11 13 9 11 12 14 11 14 9 11 33 44 13 18 10 14 7 8 12 3 35 5 45 6 37 6 50 10 16 4 14 2 2-1 3-13 7-35 7-43 5-43 2-27v-60l-3-31-4-25-6-22-7-17-9-17-10-14-11-11-14-9-15-6-12-3-7-1zm-307 208-8 7-9 11-9 10-13 16-12 14-18 22-9 12-10 13-18 21v2l46-1h113l58 2-6-10-12-16-21-27-14-17-12-14-9-11-14-15-14-16-4-3zm-72 192-51 2-19 1-9 2-7 6-9 14-9 13-17 29-12 20-13 22-5 7-6 11-7 13-12 22-15 28-35 70-1 7 2 8 8 15 11 23 13 27 10 19 15 28 10 18 20 34 16 26 28 46 8 11 6 5 11 2 47 2 33 1h129l69-2 13-1 10-3 8-8 8-12 12-19 8-13 26-44 8-13 15-27 20-38 14-27 10-20 10-19 6-12 2-8-5-13-12-25-10-19-10-20-13-23-6-11-13-24-14-24-15-26-24-40-11-17-8-12-7-6-7-2-60-3-34-1zm-173 14-52 10-37 7-52 11-1 3 6 16 14 43 15 43 8 26 6 12 4-2 8-13 18-35 10-19 14-24 11-19 14-24 9-15 10-18v-2zm491 0 6 12 10 17 8 13 13 22 14 25 9 16 14 26 7 16 11 20 4 4 6-10 12-34 10-29 11-31 5-13 6-21-1-5-14-4-46-9-50-9-32-6zm-700 46-36 12-29 11-22 9-38 17-20 10-23 13-22 14-9 7-12 9-10 8-10 9-12 12v2h-2l-13 18-9 17-6 16-3 15v22l8 23 8 15 9 12 12 14 15 15 11 9 13 10 16 11 21 13 26 14 16 8 23 11 37 15 35 12 17 7 8 2h5l3-8 6-20 12-36 11-31 12-31 16-40 15-33 1-5-8-22-22-54-9-24-7-20-8-23-12-34-9-29-2-2zm911 0-3 7-9 29-12 36-13 36-13 33-17 41-8 18-1 3v7l11 24 11 27 16 43 8 21 10 29 13 40 5 18 8-1 12-3 28-10 27-10 28-12 34-16 27-14 13-8 22-14 16-12 13-11 8-7 10-10 11-14 9-12 8-16 5-16 2-9v-23l-4-15-7-16-9-16-11-14-12-13-12-11-10-8-12-9-21-14-24-14-33-17-26-12-32-13-34-12-29-10zm-794 289-3 5-9 24-17 48-12 36-6 17-3 11 28 7 36 7 32 6 28 5 21 3 1-2-10-17-9-15-12-21-13-23-10-17-7-14-13-23-8-16-11-19zm678 0-5 9-9 16-10 20-12 22-16 29-18 30-9 16-10 15-6 10v2l21-2 35-7 44-8 39-8 7-3-1-8-12-36-16-47-13-37-7-13zm-742 206-4 6-8 32-10 68-4 33-2 27v52l3 31 4 24 6 23 8 21 10 18 11 14 12 11 14 8 15 6 17 4 8 1h13l22-3 19-5 28-11 21-10 16-8 23-12 16-10 19-12 11-8 19-14 16-13 14-12 11-10 8-7 13-12 8-9-2-5-15-16-9-11-9-10-9-11-9-10-20-25-10-13-11-14-9-12-14-19-9-13-13-18-9-10-10-4-13-1-56-7-43-7-69-13-16-4zm808-1-51 11-83 14-45 6-23 3-8 3-4 5-5 8-13 17-8 12-13 18-11 14-12 16-11 14-14 17-9 10-9 11-7 7-9 11-15 16-7 9 2 5 8 8 8 7 13 12 11 9 10 9 14 11 15 12 16 11 10 7 21 13 25 14 16 8 25 12 27 11 17 5 18 3h26l21-4 19-8 12-8 10-9v-2h2l11-16 11-23 7-25 5-26 3-22 1-12v-67l-5-51-7-49-8-48-4-9zm-296 40-15 2-19 1-37 1h-88l-37-1-21-1 2 4 9 12 10 13 22 26 9 11 13 15 9 11 12 14 9 11 8 9 7 5 7-6 7-9 7-7 7-8 12-13 27-33 13-16 13-17 8-11 5-8 3-3v-2z" fill="#4DA6FA"/>
<path transform="translate(782,667)" d="m0 0h37l18 4 16 6 19 10 12 9 12 11 9 11 11 17 9 20 5 16 3 20v16l-2 18-6 21-8 16-12 18-9 11-7 7-10 8-18 12-16 7-21 5-15 2h-20l-22-3-18-5-17-8-17-12-16-16-11-15-13-25-5-15-3-14-1-8v-28l5-21 5-15 6-12 11-17 9-10 4-5 14-11 14-9 17-8 19-6zm4 66-13 4-14 8-10 9-8 13-6 12-2 9v25l4 13 7 12 9 11 10 7 10 5 12 4 5 1h19l18-6 11-7 10-8 8-10 6-13 3-16v-16l-3-14-4-9-6-9-9-10-13-9-11-4-10-2z" fill="#4DA6FA"/>
</svg>
